<svg width="106" height="60" viewBox="0 0 106 60" fill="none" xmlns="http://www.w3.org/2000/svg">
<path d="M105.664 41.7325C105.369 40.4119 104.767 39.2144 104.07 38.0631C103.369 36.9088 102.481 36.0038 101.36 35.2557C100.196 34.4769 99.0284 34.0429 97.6522 33.8274C94.9979 33.4118 92.1286 34.0675 90.0028 35.739C89.1457 36.4101 88.2947 37.4967 88.0551 38.5834C88.0121 38.7742 87.9045 39.3745 88.2763 39.276C88.7156 39.159 89.1395 38.531 89.4836 38.2417C90.4451 37.4475 91.5081 36.9365 92.7338 36.7056C94.021 36.4686 95.385 36.3516 96.6845 36.5363C97.8795 36.7056 98.9793 37.3828 99.8272 38.2263C100.721 39.1128 101.572 40.3842 101.901 41.6155C102.564 44.0997 102.423 46.8917 101.658 49.3482C101.455 49.9977 101.194 50.7088 100.786 51.2567C100.644 51.4445 100.491 51.7123 100.263 51.8016C99.9992 51.9093 99.818 51.6477 99.6705 51.4753C99.1882 50.9181 98.712 50.3548 98.1836 49.8346C97.8273 49.4836 97.0715 49.0434 97.2559 48.4555C97.4709 47.769 97.7197 47.1349 97.7996 46.4115C97.8703 45.7589 97.8979 45.1155 97.8395 44.4599C97.7228 43.1454 97.2405 42.0157 96.2482 41.1199C95.3266 40.2888 94.1347 39.907 92.9458 40.3688C91.7385 40.8398 91.0595 41.8371 91.4436 43.1485C91.7569 44.2228 92.9028 44.6753 93.935 44.4629C94.5648 44.3336 94.9979 43.9673 95.2498 43.3794C95.3727 43.0962 95.4587 42.8006 95.4741 42.4897C95.4864 42.3112 95.345 41.8495 95.4434 41.6709C95.4434 41.7109 95.5847 41.6678 95.5232 41.6463C95.941 41.7294 96.279 42.4251 96.4694 42.7452C96.752 43.2285 96.9394 43.8042 96.9886 44.3613C97.0869 45.4757 97.0654 46.6331 96.5247 47.6367C96.2421 48.163 95.7936 47.8521 95.4188 47.5874C94.9733 47.2765 94.534 46.9687 94.0517 46.7162C92.9274 46.1314 91.8183 45.5896 90.6172 45.1771C89.9843 44.9585 89.3484 44.7523 88.7033 44.5799C88.0397 44.4014 88.1534 43.915 88.0827 43.3332C87.9168 41.9787 87.4192 40.6797 86.7341 39.5099C86.0183 38.2848 85.2687 37.1089 84.4178 35.973C83.5453 34.8094 82.6114 33.692 81.7697 32.5068C81.5976 32.2636 80.7098 31.1585 80.9894 30.8569C81.1921 30.6352 81.8803 30.9892 82.1045 31.0477C83.3426 31.3648 84.6175 31.4941 85.8893 31.5556C88.7309 31.6941 91.6801 31.2663 94.3774 30.3551C99.1482 28.7451 104.14 25.2882 104.534 19.8181C104.724 17.2077 104.196 14.5234 102.669 12.3655C101.145 10.2107 98.8318 8.8224 96.3435 8.0713C95.0163 7.66804 93.6431 7.42485 92.2669 7.25247C90.8537 7.07393 89.3515 6.95387 87.9291 7.01544C86.5314 7.08008 85.0967 7.12626 83.7358 7.45871C83.0599 7.62186 82.3933 7.69882 81.7267 7.90815C81.0908 8.10516 80.4211 8.24676 79.8005 8.49302C78.4672 9.02557 77.1739 9.57351 75.9144 10.2692C74.7071 10.9372 73.5274 11.6514 72.3907 12.4332C71.2326 13.2305 70.1113 14.0924 69.0483 15.0129C68.864 15.1698 68.1421 16.0256 67.9117 15.5854C67.7397 15.2591 67.8134 14.7881 67.8011 14.4311C67.6966 11.6791 68.5968 8.98247 70.3478 6.84613C71.1773 5.83337 72.1296 4.80214 73.2417 4.09721C73.8561 3.71243 74.449 3.29686 75.0941 2.9644C75.6717 2.66581 76.2861 2.44109 76.8851 2.18559C79.3581 1.14513 82.1629 0.840375 84.8202 0.966585C85.4746 0.997368 86.1873 1.18514 86.7925 1.43141C87.2901 1.63458 87.7264 2.19483 88.2916 1.90854C89.2778 1.40986 90.3315 1.62842 91.3606 1.32367C91.5326 1.27441 91.8183 1.11434 91.6463 0.892706C91.5081 0.714165 91.1916 0.677225 90.9889 0.631051C90.3837 0.489449 89.7754 0.384787 89.158 0.292438C87.6834 0.0769571 86.2119 0.0246261 84.7219 0.003078C81.9325 -0.0400182 79.1707 0.366317 76.5718 1.41909C74.0158 2.4534 71.6258 3.8294 69.8256 5.97497C68.9593 7.01236 68.308 8.17288 67.8134 9.42575C67.328 10.654 67.156 12.0023 67.0146 13.3013C66.9409 13.9816 66.9194 14.6465 66.9655 15.3299C66.9962 15.804 67.1928 16.4443 66.9163 16.8752C66.5416 17.4601 65.9732 17.9526 65.5063 18.4636C65.1008 18.9069 64.7966 19.4364 64.4311 19.9166C63.5647 21.0525 62.7783 22.2746 62.1485 23.5582C61.5126 24.8542 61.0518 26.1778 60.5941 27.5446C59.6694 30.2966 59.4912 33.1871 59.6079 36.0684C59.6663 37.4752 59.9152 38.8697 60.2623 40.2303C60.5971 41.5416 61.0088 42.8745 61.5679 44.1089C59.3591 43.9796 57.1134 43.8503 56.4069 44.3367C56.453 44.3059 60.6954 49.9269 58.7201 53.6855C56.5328 51.7123 50.143 46.0944 53.0829 43.9212C55.3562 42.2435 58.204 39.0544 56.9629 35.9453C55.6911 32.75 51.252 33.5504 49.3135 35.5389C45.5257 39.396 50.4625 43.5087 47.1385 46.3592C46.7361 46.707 46.3797 47.0702 46.0694 47.4458C46.22 46.9594 46.3214 46.4577 46.3613 45.9313C46.4719 44.4999 46.3859 43.1208 46.0725 41.7202C45.7776 40.3996 45.1755 39.2021 44.4812 38.0508C43.7808 36.8965 42.8899 35.9915 41.7686 35.2434C40.6043 34.4646 39.4369 34.0306 38.0606 33.8151C35.4064 33.3995 32.5371 34.0552 30.4143 35.7267C29.5572 36.3978 28.7032 37.4844 28.4636 38.5711C28.4205 38.7619 28.313 39.3622 28.6878 39.2637C29.1302 39.1467 29.5511 38.5187 29.8951 38.2294C30.8567 37.4352 31.9196 36.9242 33.1454 36.6933C34.4325 36.4563 35.7996 36.3393 37.0991 36.524C38.291 36.6933 39.3908 37.3705 40.2418 38.214C41.1357 39.1005 41.9867 40.3719 42.3154 41.6032C42.979 44.0874 42.8346 46.8794 42.0727 49.3359C41.87 49.9854 41.6088 50.6965 41.1972 51.2444C41.0559 51.4322 40.9023 51.7 40.6749 51.7893C40.4107 51.897 40.2326 51.6354 40.082 51.463C39.5966 50.9058 39.1236 50.3425 38.5982 49.8222C38.2419 49.4713 37.4862 49.0311 37.6674 48.4432C37.8824 47.7567 38.1313 47.1226 38.2112 46.3992C38.2849 45.7466 38.3095 45.1032 38.2511 44.4475C38.1343 43.1331 37.652 42.0034 36.6567 41.1076C35.7382 40.2764 34.5431 39.8947 33.3573 40.3565C32.1469 40.8275 31.4711 41.8248 31.852 43.1362C32.1684 44.2105 33.3112 44.663 34.3465 44.4506C34.9763 44.3213 35.4094 43.955 35.6614 43.3671C35.7842 43.0839 35.8672 42.7883 35.8856 42.4774C35.8948 42.2989 35.7566 41.8371 35.8518 41.6586C35.8518 41.6986 35.9962 41.6555 35.9317 41.634C36.3495 41.7171 36.6905 42.4128 36.8779 42.7329C37.1636 43.2162 37.3479 43.7888 37.4001 44.349C37.4954 45.4634 37.4739 46.6208 36.9332 47.6243C36.6506 48.1507 36.202 47.8398 35.8303 47.5751C35.3849 47.2642 34.9456 46.9563 34.4602 46.7039C33.3358 46.1191 32.2268 45.5773 31.0256 45.1648C30.3897 44.9462 29.7569 44.74 29.1087 44.5676C28.4451 44.3921 28.5619 43.9027 28.4912 43.3209C28.3222 41.9664 27.8276 40.6674 27.1426 39.4946C26.4268 38.2694 25.6772 37.0935 24.8232 35.9576C23.9538 34.794 23.0199 33.6766 22.1751 32.4914C22.0061 32.2482 21.1183 31.1431 21.3979 30.8415C21.6006 30.6198 22.2887 30.9738 22.513 31.0323C23.751 31.3494 25.0229 31.4787 26.2947 31.5402C29.1363 31.6788 32.0855 31.2509 34.7828 30.3397C39.5567 28.7297 44.5457 25.2728 44.942 19.8027C45.1294 17.1923 44.601 14.508 43.0742 12.3501C41.5535 10.1953 39.2372 8.80701 36.7489 8.0559C35.4187 7.65265 34.0485 7.40946 32.6723 7.23708C31.2591 7.05854 29.7569 6.93848 28.3345 7.00005C26.9367 7.06469 25.5021 7.11087 24.1412 7.44332C23.4653 7.60647 22.7987 7.68343 22.1321 7.89275C21.4931 8.08977 20.8264 8.23137 20.2059 8.47763C18.8726 9.01018 17.5793 9.55811 16.3198 10.2538C15.1124 10.9218 13.9328 11.636 12.7961 12.4179C11.638 13.2151 10.5167 14.0771 9.45374 14.9975C9.26941 15.1545 8.55055 16.0102 8.31708 15.57C8.14504 15.2437 8.22184 14.7727 8.20648 14.4157C8.10203 11.6637 9.00522 8.96708 10.7532 6.83074C11.5827 5.81798 12.535 4.78675 13.6501 4.08182C14.2615 3.69703 14.8575 3.28147 15.5026 2.94901C16.0832 2.65041 16.6945 2.4257 17.2967 2.1702C19.7727 1.14513 22.5775 0.840375 25.2379 0.966585C25.8892 0.997368 26.6019 1.18514 27.2071 1.43141C27.7048 1.63458 28.141 2.19483 28.7062 1.90854C29.6954 1.40986 30.7461 1.62842 31.7752 1.32367C31.9473 1.27441 32.233 1.11434 32.0609 0.892706C31.9227 0.714165 31.6063 0.677225 31.4066 0.631051C30.7983 0.489449 30.19 0.384787 29.5756 0.292438C28.1011 0.0769571 26.6295 0.0246261 25.1427 0.003078C22.3502 -0.0400182 19.5884 0.366317 16.9925 1.41909C14.4335 2.4534 12.0465 3.8294 10.2463 5.97497C9.37694 7.01236 8.72873 8.17288 8.23106 9.42575C7.74568 10.654 7.57364 12.0023 7.4354 13.3013C7.36474 13.9816 7.34017 14.6465 7.38625 15.3299C7.41697 15.804 7.61665 16.4443 7.3371 16.8752C6.96538 17.4601 6.39091 17.9526 5.92703 18.4636C5.52152 18.9069 5.22046 19.4364 4.85488 19.9166C3.98549 21.0525 3.20212 22.2746 2.56928 23.5582C1.93337 24.8542 1.47563 26.1778 1.0179 27.5446C0.0932127 30.2966 -0.0849659 33.1871 0.0317718 36.0684C0.0901407 37.4752 0.338976 38.8697 0.689189 40.2303C1.03019 41.5662 1.45106 42.9299 2.0286 44.1828C2.61843 45.4665 3.18369 46.7316 3.89948 47.9537C4.15753 48.3908 4.74122 48.9849 4.2927 49.4713C3.86876 49.9331 3.41102 50.3394 3.02702 50.8412C2.26822 51.8324 1.54936 52.9713 1.4357 54.2427C1.3251 55.4832 1.55243 56.7546 2.40646 57.6996C4.29884 59.7898 7.29101 60.1191 9.95755 59.9683C11.2877 59.8944 12.6456 59.7374 13.9236 59.3496C14.581 59.1495 15.2568 58.9463 15.8897 58.6847C16.4365 58.4569 17.0478 58.0197 17.65 58.2568C20.1629 59.2572 23.0445 59.6174 25.7294 59.6328C28.4482 59.6482 31.3113 59.2234 33.8919 58.3522C35.2436 57.8997 36.5522 57.3271 37.7596 56.5576C38.3709 56.1666 39.1911 55.5633 39.7441 55.0954L41.787 55.0492C41.5935 54.4305 42.0113 53.1868 42.3891 52.799C43.1387 52.0355 43.8944 51.2229 44.5426 50.3486C42.9913 55.8988 48.2107 61.9692 54.8248 58.7862C56.0044 58.2106 57.4729 57.244 58.3914 56.3113C59.2239 56.9978 62.1393 58.3953 63.9088 59.1187C63.9088 59.1187 63.9088 59.1187 63.9119 59.1218C64.1484 59.2326 64.3881 59.3342 64.6369 59.4204C66.176 59.9714 67.9178 60.0607 69.5399 59.9683C70.8701 59.8944 72.2279 59.7374 73.5059 59.3496C74.1633 59.1495 74.8361 58.9463 75.472 58.6847C76.0188 58.4569 76.6301 58.0197 77.2353 58.2568C79.7452 59.2572 82.6299 59.6174 85.3117 59.6328C88.0305 59.6482 90.8967 59.2234 93.4772 58.3522C94.8289 57.8997 96.1376 57.3271 97.3419 56.5576C97.9532 56.1666 98.7735 55.5633 99.3295 55.0954L101.369 55.0492C101.179 54.4305 101.591 53.1868 101.975 52.799C103.839 50.8966 105.744 48.7233 105.956 45.9344C106.063 44.5122 105.977 43.1331 105.664 41.7325ZM26.2763 50.9951C26.5804 50.6288 26.8292 50.204 27.0596 49.7884C27.5542 48.9018 27.9659 47.926 28.1994 46.9348C28.1994 46.9286 28.2024 46.9256 28.2024 46.9163C28.2024 46.9133 28.2024 46.9133 28.2024 46.9133C28.2024 46.9133 28.2055 46.9009 28.2086 46.8825C28.2116 46.8671 28.2147 46.8517 28.2178 46.8394C28.2178 46.8363 28.2178 46.8363 28.2178 46.8363C28.2209 46.8271 28.2239 46.8147 28.227 46.8055V46.8024C28.3376 46.3253 28.4728 46.0236 29.0411 46.2391C29.5326 46.4238 30.0518 46.5346 30.5618 46.6608C31.6001 46.9225 32.6876 47.3534 33.6369 47.8429C34.1683 48.1138 34.6722 48.4339 35.1698 48.7695C35.4985 48.9911 35.8764 49.2743 35.5354 49.6714C34.8534 50.4502 33.9871 50.9458 33.0686 51.4014C32.064 51.897 30.9304 52.054 29.8214 52.0879C29.2316 52.1033 28.6387 52.0448 28.0488 52.0232C27.4928 52.0017 26.9337 51.9832 26.3899 51.8508C25.8185 51.7031 25.9721 51.3614 26.2763 50.9951ZM24.6235 47.6397C24.5866 48.6217 24.3593 49.6098 23.9507 50.5056C23.7172 51.0197 23.4623 51.0905 22.9462 50.8442C22.4823 50.6257 22.0061 50.441 21.5484 50.207C19.527 49.1758 17.6407 47.9691 16.0463 46.3376C15.3644 45.6388 16.4826 45.6265 16.971 45.5373C18.0954 45.3249 19.2228 45.3464 20.3595 45.3033C20.3718 45.3033 20.3871 45.3002 20.3994 45.3002C20.4148 45.3002 20.4332 45.3002 20.4517 45.2971C20.4732 45.2971 20.4947 45.2941 20.5162 45.2941C20.5285 45.291 20.5407 45.291 20.553 45.291H20.5623C20.5776 45.291 20.593 45.2879 20.6022 45.2879C20.6237 45.2848 20.6329 45.2848 20.6329 45.2848C21.2135 45.2602 21.788 45.214 22.3717 45.2233C22.9431 45.2294 23.5913 45.1925 24.1504 45.3249C24.8385 45.5003 24.645 47.1133 24.6235 47.6397ZM22.0645 39.7285C22.8048 40.8767 23.6159 42.0526 24.0244 43.3701C24.261 44.1428 23.281 43.8688 22.8079 43.8657C22.1044 43.8596 21.4009 43.8873 20.6974 43.9304C19.3396 44.0166 17.9725 44.1274 16.627 44.3429C16.2706 44.4014 15.9173 44.466 15.5671 44.5399C15.3091 44.5953 15.0479 44.7492 14.7807 44.6507C14.4028 44.5122 14.1202 43.7518 13.9512 43.4225C13.3399 42.2281 12.919 40.9444 12.5903 39.6515C12.406 38.9312 12.3415 38.1617 12.2339 37.4229C12.1326 36.7179 12.1448 36.0007 12.2032 35.2896C12.4029 32.7408 12.7347 29.998 14.2768 27.874C14.283 27.8647 14.2891 27.8586 14.2953 27.8494C14.3199 27.8124 14.3321 27.8001 14.3321 27.8001C14.3321 27.8001 14.3321 27.8001 14.3321 27.797C14.7807 27.2121 15.2968 27.7539 15.776 28.071C16.3136 28.4281 16.8512 28.8159 17.4288 29.1053C17.6745 29.2284 17.9418 29.367 17.9664 29.6748C17.9909 29.9765 17.9234 30.2874 17.9234 30.589C17.9295 31.2447 18.0186 31.9158 18.1845 32.5499C18.5193 33.8366 19.2198 35.0033 19.8557 36.1577C20.5346 37.3921 21.3057 38.5526 22.0645 39.7285ZM10.9805 36.0684C11.1188 38.8851 12.0865 41.4708 13.1863 44.035C13.4136 44.5645 13.7085 45.0078 12.9958 45.214C12.6179 45.3249 11.8929 45.7804 11.5458 45.4603C11.1679 45.1155 10.956 44.4752 10.7594 44.0197C10.5105 43.4409 10.2801 42.853 10.148 42.2373C9.57662 39.5684 9.36157 36.7456 9.86846 34.0521C10.3262 31.6172 11.4598 29.0407 13.134 27.1906C13.1402 27.1844 13.1525 27.1752 13.1648 27.1598C13.1832 27.1383 13.2016 27.1198 13.2016 27.1198C13.3491 26.969 13.773 26.5749 13.859 26.9166C13.9236 27.1814 13.644 27.5231 13.5119 27.7231C12.9528 28.5697 12.5135 29.4008 12.1295 30.3428C11.4014 32.122 10.8853 34.1291 10.9805 36.0684ZM8.87005 17.0384C9.28477 16.5859 9.79473 16.1918 10.2463 15.7763C11.2386 14.8651 12.3322 14.0216 13.432 13.2428C14.0157 12.8303 14.624 12.4579 15.2169 12.0577C15.7791 11.6791 16.3812 11.4112 16.9741 11.088C19.4625 9.72434 22.1781 8.74852 24.9799 8.29601C26.3561 8.07437 27.7017 7.93893 29.1025 7.9574C30.3744 7.97279 31.594 8.1421 32.8443 8.33911C35.474 8.7516 38.1743 9.93367 40.0974 11.8053C41.0466 12.7257 41.8331 13.84 42.3431 15.059C42.853 16.2811 43.0128 17.691 42.9913 19.0085C42.9513 21.505 42.0266 23.8599 40.3585 25.7161C38.5399 27.7324 35.8518 29.0437 33.2498 29.6933C30.485 30.3828 27.6341 30.5736 24.8017 30.2874C24.1043 30.2166 23.4408 30.0873 22.7526 29.9549C22.2795 29.8656 21.6682 29.7056 21.2473 29.4685C20.7435 29.1853 21.0353 28.3573 21.1337 27.9202C21.2719 27.323 21.5146 26.815 21.8371 26.301C22.1812 25.75 22.6605 25.2605 22.9615 24.6879C23.2257 24.1831 22.8632 23.9584 22.3717 24.1277C21.2166 24.531 20.1107 25.4021 19.358 26.3533C18.9494 26.8705 18.7467 27.4676 18.4333 28.0341C18.1446 28.5635 17.5885 28.148 17.1984 27.954C16.6546 27.6831 16.0617 27.3968 15.561 27.0428C15.1094 26.7196 15.4964 26.3441 15.8006 26.0824C17.7329 24.3955 20.0922 23.2904 22.6297 22.8871C22.9247 22.841 23.2872 22.7394 23.5606 22.921C23.7818 23.0688 23.9231 23.3089 24.1105 23.4936C24.5221 23.9061 25.0014 24.2755 25.5021 24.574C26.6173 25.2328 27.9935 25.4668 29.2684 25.4883C30.7123 25.5129 32.0763 25.1651 33.3973 24.5925C34.623 24.0631 35.8272 23.3704 36.7089 22.3484C36.8748 22.1576 37.5998 21.2095 36.9516 21.1571C36.5738 21.1264 36.1437 21.4157 35.7904 21.5235C34.5923 21.8805 33.2344 21.7728 32.0886 21.2926C31.041 20.8524 29.8091 20.1321 29.3944 19.0023C28.9643 17.811 29.7692 17.2662 30.5433 16.5643C30.5433 16.5643 30.5464 16.5612 30.5495 16.5612V16.5582H30.5525C30.5587 16.552 30.5618 16.5458 30.5679 16.5397C30.9427 16.2011 30.5034 16.1672 30.2054 16.2688C29.9197 16.3642 29.6494 16.4874 29.3944 16.6413C28.8506 16.9737 28.4328 17.4355 27.9413 17.8295C26.863 18.6883 25.4591 19.2024 24.1996 19.7196C22.8294 20.2767 21.4839 20.8924 20.1506 21.5327C18.8911 22.136 17.6162 22.7209 16.4211 23.4412C15.8037 23.8137 15.1892 24.18 14.6025 24.6048C14.2093 24.888 13.6317 25.5191 13.1556 25.085C12.2094 24.2262 11.3707 23.0903 10.6733 22.0252C10.3016 21.4588 9.88689 20.8493 9.63806 20.2152C9.40458 19.6241 9.93605 19.2825 10.3385 18.9531C11.2601 18.1958 12.2769 17.5617 13.3675 17.0846C13.9297 16.8383 14.4919 16.6166 15.094 16.4874C15.2845 16.4443 15.9296 16.2165 16.0648 16.435C16.1631 16.5982 15.9665 16.9122 15.9204 17.0661C15.8313 17.3616 15.8067 17.6787 15.8559 17.9803C15.9388 18.479 16.1969 18.9869 16.6055 19.2886C17.524 19.9658 18.9648 19.8335 19.5792 18.8176C20.1936 17.8049 20.0124 16.5643 19.06 15.8317C18.0585 15.059 16.5563 15.2961 15.4074 15.5362C15.0725 15.607 14.7039 15.607 14.3905 15.7455C14.1048 15.8686 13.8314 16.0133 13.5426 16.1241C12.9036 16.3735 12.323 16.7305 11.7301 17.0661C11.1434 17.4016 10.615 17.7649 10.0835 18.1804C9.78552 18.4113 9.23869 19.0731 8.95299 18.5129C8.73795 18.0912 8.51369 17.4262 8.87005 17.0384ZM1.70296 34.9387C1.70296 34.9479 1.69989 34.9571 1.69989 34.9633C1.69989 34.9725 1.69682 34.9818 1.69682 34.991C1.69682 34.9941 1.69682 34.9941 1.69682 34.9941C1.69682 35.0002 1.69682 35.0064 1.69375 35.0126V35.0279C1.69375 35.0341 1.69068 35.0403 1.69068 35.0433V35.0495C1.69068 35.0526 1.69068 35.0526 1.69068 35.0526C1.69068 35.0587 1.6876 35.0618 1.6876 35.068V35.071C1.65996 35.462 1.63845 35.8714 1.47563 36.2316C1.22373 35.8868 1.31896 35.2465 1.30667 34.8463C1.29131 34.3045 1.20837 33.7874 1.2268 33.2364C1.25752 32.1744 1.43262 31.1401 1.55858 30.0842C1.88729 27.3907 3.02394 24.7741 4.34492 22.4377C5.04228 21.2033 5.88402 20.0336 6.82406 18.9685C6.97767 18.793 7.58593 17.848 7.8317 18.3159C7.93 18.5067 7.95151 18.7284 8.02216 18.9285C8.11125 19.1716 8.24642 19.4271 8.12968 19.6857C7.97915 20.0089 7.67195 20.2921 7.45998 20.5723C7.25108 20.8462 7.04218 21.1233 6.83635 21.4034C6.43391 21.9483 6.03762 22.49 5.68741 23.0718C4.95626 24.2939 4.3695 25.5683 3.79196 26.8643C3.22977 28.1295 2.82426 29.4562 2.51706 30.8045C2.20985 32.1713 1.81049 33.5473 1.70296 34.9387ZM4.32649 46.5254C4.007 45.9374 3.71515 45.331 3.50011 44.6969C2.60615 42.0865 2.39417 39.2298 2.5232 36.4901C2.59079 35.0803 2.74746 33.6304 3.06695 32.2544C3.37416 30.94 3.75816 29.5978 4.26505 28.3511C4.81495 26.9997 5.26039 25.633 6.01919 24.374C6.70425 23.2473 7.33095 22.0899 8.23106 21.1171C8.25257 21.0925 8.27407 21.074 8.29557 21.0525C8.31093 21.0371 8.31093 21.034 8.31093 21.034C8.7103 20.6184 8.92842 20.8832 9.15267 21.3234C9.4353 21.8805 9.81624 22.3761 10.1818 22.881C10.5597 23.4012 10.9805 23.8876 11.4076 24.3678C11.7762 24.7834 12.2831 25.1651 12.578 25.6361C12.8422 26.0547 12.1541 26.5595 11.8899 26.7966C11.3983 27.2429 11.0143 27.7662 10.5965 28.2742C9.79166 29.2592 9.0513 30.2904 8.44918 31.414C6.04684 35.933 4.5999 41.046 5.99154 46.116C6.0837 46.4546 6.16972 46.7994 6.29874 47.1287C6.38169 47.3381 6.51686 47.6274 6.40012 47.8491C6.23116 48.1754 5.70277 48.4924 5.38942 48.1846C4.9409 47.7475 4.62141 47.0672 4.32649 46.5254ZM15.1309 57.7519C14.6056 58.0721 14.0004 58.2414 13.4228 58.4446C12.0742 58.9186 10.6242 59.0695 9.20183 59.1095C7.09748 59.171 4.17289 58.737 2.88263 56.85C1.30053 54.5351 2.98401 51.6815 4.93476 50.2193C5.48772 49.8038 5.95775 50.678 6.28338 51.032C6.73497 51.5215 7.21421 51.9801 7.70881 52.4265C8.68265 53.3038 9.65342 54.2304 10.7409 54.9722C10.7501 54.9784 10.7594 54.9845 10.7716 54.9907C10.7931 55.0061 10.8699 55.0554 10.8822 55.0646C10.8853 55.0677 10.8853 55.0677 10.8884 55.0677L10.9037 55.0769C11.1772 55.2739 11.4352 55.5263 11.7946 55.5233C11.8438 55.1754 11.297 54.8306 11.0666 54.6582C10.7286 54.4027 10.3753 54.1688 10.062 53.8856C9.32778 53.2268 8.66422 52.5373 8.01602 51.7954C7.44769 51.149 6.76262 50.401 6.38476 49.6222C6.23423 49.3112 6.45235 49.0404 6.74726 48.9357C7.02989 48.8341 7.22343 49.1635 7.3371 49.3605C8.20648 50.8596 9.34621 52.2695 10.5505 53.51C11.8039 54.806 13.1771 55.9296 14.7161 56.8715C15.0571 57.0778 15.7238 57.3918 15.1309 57.7519ZM20.2919 54.4181C19.7635 54.3289 19.189 53.9195 18.7375 53.6455C17.6715 53.0114 16.6884 52.2387 15.8528 51.3183C15.0019 50.3794 14.2062 49.382 13.4566 48.357C13.1371 47.9199 12.704 47.4489 12.4889 46.9502C12.3046 46.5192 12.8176 46.4515 13.1279 46.3715L13.134 46.3684C13.1371 46.3653 13.1371 46.3653 13.1371 46.3684L13.1402 46.3653L13.1586 46.3622C13.1678 46.3592 13.1771 46.3561 13.1893 46.353C13.2139 46.3438 13.2324 46.3407 13.2477 46.3376C13.2508 46.3345 13.2569 46.3345 13.2631 46.3315C13.2661 46.3315 13.2692 46.3284 13.2754 46.3284C13.2815 46.3253 13.2846 46.3253 13.2846 46.3253C13.7423 46.1775 14.3137 45.9497 14.71 46.3253C15.1002 46.6978 15.4596 47.0979 15.8559 47.4643C16.7652 48.3077 17.7145 49.0958 18.7344 49.8069C19.7543 50.5179 20.8264 51.1582 21.9355 51.7246C22.2058 51.8601 22.9984 52.1248 22.7495 52.5435C22.5069 52.9529 22.0338 53.3315 21.6866 53.6486C21.3272 53.9718 20.8203 54.5074 20.2919 54.4181ZM33.6246 56.1851C32.9119 56.9701 31.4987 56.8346 30.5495 56.8131C29.2254 56.7823 27.886 56.7207 26.5804 56.4898C25.2932 56.259 24.0029 55.9019 22.7711 55.4617C22.6297 55.4124 22.2396 55.317 22.2273 55.1231C22.2119 54.9076 22.6052 54.689 22.7403 54.5782C23.1889 54.2057 23.6374 53.8333 24.0705 53.4516L24.0736 53.4485C24.0767 53.4454 24.0797 53.4423 24.0828 53.4392C24.0859 53.4362 24.0859 53.4362 24.0859 53.4362C24.0859 53.4362 24.1074 53.4208 24.1258 53.3992C24.1443 53.3838 24.1627 53.3654 24.1811 53.35L24.1842 53.3469C24.6604 52.9406 24.9768 52.8698 25.6281 52.996C26.2609 53.1191 26.9091 53.1591 27.5542 53.193C28.783 53.2576 30.0211 53.2576 31.2438 53.0545C31.3759 53.0298 32.3743 52.7097 32.1623 53.1314C31.9626 53.5347 31.6247 54.5105 32.2391 54.1965C32.9979 53.8209 34.5954 55.1231 33.6246 56.1851ZM38.93 53.0545C38.5429 53.1961 38.0729 53.233 37.6643 53.233C36.5891 53.233 35.5661 52.682 34.5093 52.5065C34.5001 52.5065 34.4909 52.5034 34.4848 52.5034C34.4817 52.5034 34.4817 52.5034 34.4817 52.5034C34.4694 52.5004 34.4602 52.5004 34.451 52.5004C34.4479 52.5004 34.4479 52.5004 34.4479 52.5004C34.4448 52.4973 34.4448 52.4973 34.4448 52.4973H34.4387C34.4356 52.4973 34.4295 52.4942 34.4233 52.4942C34.2144 52.4634 33.9902 52.448 33.812 52.3187C33.9594 52.0417 34.2605 51.9155 34.5155 51.7616C34.792 51.5953 35.0623 51.4168 35.3265 51.229C35.7443 50.9304 36.0853 50.5272 36.5 50.2378C36.927 49.9423 37.3448 50.5179 37.6121 50.7888C38.036 51.2229 38.4231 51.6938 38.8471 52.1248C39.1451 52.4172 39.4799 52.8513 38.93 53.0545ZM49.9218 37.6168C49.9249 37.6076 49.9249 37.6014 49.9279 37.5891V37.586C49.931 37.5768 49.931 37.5675 49.9341 37.5552C49.9372 37.5368 49.9433 37.5152 49.9464 37.4967V37.4937L49.9525 37.469C49.9556 37.466 49.9556 37.4629 49.9556 37.4598C51.1445 32.5253 59.0581 39.2206 51.169 43.875C50.2536 41.9757 49.4856 39.7501 49.9218 37.6168ZM56.1396 56.5483C56.1365 56.5514 56.1335 56.5514 56.1304 56.5545C56.112 56.5668 56.0966 56.576 56.0843 56.5853C56.0782 56.5883 56.0751 56.5914 56.069 56.5945C56.0382 56.616 56.029 56.6191 56.029 56.6191C49.1476 60.8918 43.6087 50.9458 49.4456 46.0914C51.3257 49.7545 54.0721 53.0545 57.1134 55.7941C56.7878 56.0435 56.4652 56.2959 56.1396 56.5483ZM85.8616 50.9951C86.1658 50.6288 86.4115 50.204 86.645 49.7884C87.1396 48.9018 87.5513 47.926 87.7817 46.9348C87.7817 46.9317 87.7817 46.9286 87.7848 46.9256C87.7878 46.9225 87.7878 46.9133 87.7878 46.9009C87.794 46.8886 87.794 46.8732 87.8001 46.8609C87.8001 46.8517 87.8032 46.8455 87.8032 46.8363C87.8063 46.8209 87.8093 46.8055 87.8155 46.7932C87.8155 46.7901 87.8185 46.787 87.8185 46.787C87.9261 46.3161 88.0674 46.0175 88.6296 46.2329C89.1211 46.4176 89.6403 46.5285 90.1472 46.6547C91.1855 46.9163 92.2699 47.3473 93.2223 47.8367C93.7537 48.1076 94.2575 48.4278 94.7521 48.7633C95.0809 48.9849 95.4587 49.2682 95.1146 49.6653C94.4326 50.4441 93.5694 50.9397 92.6509 51.3953C91.6463 51.8909 90.5127 52.0479 89.4006 52.0817C88.8108 52.0971 88.221 52.0386 87.6281 52.0171C87.0751 51.9955 86.5129 51.9771 85.9722 51.8447C85.4039 51.7031 85.5575 51.3614 85.8616 50.9951ZM84.2089 47.6397C84.172 48.6217 83.9416 49.6098 83.5361 50.5056C83.2996 51.0197 83.0446 51.0905 82.5285 50.8442C82.0646 50.6257 81.5915 50.441 81.1307 50.207C79.1124 49.1758 77.2231 47.9691 75.6317 46.3376C74.9497 45.6388 76.068 45.6265 76.5534 45.5373C77.6808 45.3249 78.8052 45.3464 79.9449 45.3033C79.9572 45.3033 79.9725 45.3002 79.9848 45.3002C80.0002 45.3002 80.0186 45.3002 80.037 45.2971C80.0586 45.2971 80.0801 45.2941 80.1016 45.2941C80.1138 45.291 80.1231 45.291 80.1384 45.291H80.1476C80.163 45.291 80.1784 45.2879 80.1876 45.2879C80.2091 45.2848 80.2183 45.2848 80.2183 45.2848C80.7989 45.2602 81.3734 45.214 81.9571 45.2233C82.5285 45.2294 83.1767 45.1925 83.7358 45.3279C84.4209 45.5003 84.2273 47.1133 84.2089 47.6397ZM81.6499 39.7285C82.3902 40.8767 83.2013 42.0526 83.6068 43.3701C83.8464 44.1428 82.8633 43.8688 82.3902 43.8657C81.6867 43.8596 80.9863 43.8873 80.2828 43.9304C78.925 44.0166 77.5579 44.1274 76.2124 44.3429C75.856 44.4014 75.5027 44.466 75.1525 44.5399C74.8944 44.5953 74.6364 44.7492 74.363 44.6507C73.9882 44.5122 73.7056 43.7518 73.5366 43.4225C72.9253 42.2281 72.5044 40.9444 72.1757 39.6515C71.9914 38.9312 71.9238 38.1617 71.8193 37.4229C71.7179 36.7179 71.7302 36.0007 71.7855 35.2896C71.9852 32.7592 72.3109 30.0411 73.8254 27.9202C73.8377 27.9048 73.8469 27.8894 73.8622 27.8709C73.8653 27.8678 73.8653 27.8678 73.8653 27.8678L73.9053 27.8124C74.3599 27.1998 74.8822 27.7478 75.3645 28.071C75.9052 28.4281 76.4428 28.8159 77.0203 29.1053C77.2661 29.2284 77.5333 29.367 77.5579 29.6748C77.5794 29.9765 77.5118 30.2874 77.5149 30.589C77.521 31.2447 77.6101 31.9158 77.773 32.5499C78.1109 33.8366 78.8113 35.0033 79.4441 36.1577C80.12 37.3921 80.888 38.5526 81.6499 39.7285ZM70.5659 36.0684C70.7042 38.8851 71.6719 41.4708 72.7717 44.035C72.999 44.5645 73.2939 45.0078 72.5812 45.214C72.2033 45.3249 71.4783 45.7804 71.1312 45.4603C70.7564 45.1155 70.5414 44.4752 70.3447 44.0197C70.099 43.4409 69.8686 42.853 69.7334 42.2373C69.1651 39.5684 68.95 36.7456 69.4539 34.0521C69.9116 31.6172 71.0452 29.0437 72.7164 27.1968C72.7194 27.1937 72.7225 27.1906 72.7256 27.1875C72.7287 27.1844 72.7287 27.1844 72.7348 27.1783C72.744 27.1691 72.7563 27.1537 72.7655 27.1444C72.7655 27.1444 72.7655 27.1444 72.7655 27.1413L72.7686 27.1383C72.7717 27.1352 72.7747 27.1321 72.7778 27.129C72.7809 27.126 72.784 27.1198 72.784 27.1198C72.784 27.1198 72.787 27.1198 72.787 27.1167C72.7901 27.1136 72.7901 27.1136 72.7901 27.1136C72.9406 26.9628 73.3646 26.5688 73.4475 26.9105C73.512 27.1752 73.2325 27.5169 73.1034 27.717C72.5413 28.5635 72.105 29.3947 71.721 30.3366C70.9868 32.122 70.4676 34.1291 70.5659 36.0684ZM68.4524 17.0384C68.8671 16.5859 69.374 16.1918 69.8286 15.7763C70.8209 14.8651 71.9146 14.0216 73.0144 13.2428C73.598 12.8303 74.2063 12.4579 74.7961 12.0577C75.3583 11.6791 75.9635 11.4112 76.5534 11.088C79.0417 9.72434 81.7574 8.74852 84.5591 8.29601C85.9354 8.07437 87.2809 7.93893 88.6818 7.9574C89.9536 7.97279 91.1732 8.1421 92.4235 8.33911C95.0501 8.7516 97.7535 9.93367 99.6797 11.8053C100.629 12.7257 101.415 13.84 101.925 15.059C102.438 16.2811 102.595 17.691 102.574 19.0085C102.534 21.505 101.609 23.8599 99.9408 25.7161C98.1252 27.7324 95.4341 29.0437 92.8352 29.6933C90.0704 30.3828 87.2164 30.5736 84.3871 30.2874C83.6897 30.2166 83.0261 30.0873 82.3349 29.9549C81.8649 29.8656 81.2536 29.7056 80.8296 29.4685C80.3258 29.1853 80.6177 28.3573 80.716 27.9202C80.8511 27.323 81.0969 26.815 81.4195 26.301C81.7635 25.75 82.2428 25.2605 82.5438 24.6879C82.808 24.1831 82.4486 23.9584 81.9571 24.1277C80.802 24.531 79.6961 25.4021 78.9434 26.3533C78.5348 26.8705 78.3321 27.4676 78.0187 28.0341C77.7299 28.5635 77.1739 28.148 76.7838 27.954C76.2369 27.6831 75.644 27.3968 75.1464 27.0428C74.6948 26.7196 75.0818 26.3441 75.386 26.0824C77.3183 24.3955 79.6776 23.2904 82.2151 22.8871C82.51 22.841 82.8725 22.7394 83.1429 22.921C83.3641 23.0688 83.5054 23.3089 83.6928 23.4936C84.1014 23.9061 84.5837 24.2755 85.0844 24.574C86.1965 25.2328 87.5728 25.4668 88.8507 25.4883C90.2946 25.5129 91.6586 25.1651 92.9765 24.5925C94.2022 24.0631 95.4096 23.3704 96.2912 22.3484C96.4571 22.1576 97.1791 21.2095 96.5339 21.1571C96.1591 21.1264 95.7291 21.4157 95.3758 21.5235C94.1777 21.8805 92.8198 21.7728 91.674 21.2926C90.6264 20.8524 89.3914 20.1321 88.9798 19.0023C88.5466 17.811 89.3546 17.2662 90.1287 16.5643C90.1287 16.5643 90.1318 16.5643 90.1349 16.5612V16.5582C90.1379 16.5551 90.1533 16.5397 90.1594 16.5335C90.1686 16.5243 90.1717 16.5243 90.1717 16.5243C90.5097 16.2011 90.0826 16.1703 89.7908 16.2688C89.5051 16.3642 89.2348 16.4874 88.9767 16.6413C88.436 16.9737 88.0182 17.4355 87.5267 17.8295C86.4484 18.6883 85.0445 19.2024 83.7849 19.7196C82.4148 20.2767 81.0693 20.8924 79.736 21.5327C78.4764 22.136 77.2046 22.7209 76.0065 23.4412C75.386 23.8137 74.7716 24.18 74.1879 24.6048C73.7916 24.888 73.2171 25.5191 72.7379 25.085C71.7948 24.2262 70.953 23.0903 70.2587 22.0252C69.887 21.4588 69.4723 20.8493 69.2204 20.2152C68.99 19.6241 69.5214 19.2825 69.9239 18.9531C70.8455 18.1958 71.8593 17.5617 72.9529 17.0846C73.512 16.8383 74.0773 16.6166 74.6763 16.4874C74.8668 16.4443 75.5119 16.2165 75.6471 16.435C75.7454 16.5982 75.5488 16.9122 75.5027 17.0661C75.4106 17.3616 75.389 17.6787 75.4382 17.9803C75.5211 18.479 75.7761 18.9869 76.1878 19.2886C77.1063 19.9658 78.5471 19.8335 79.1615 18.8176C79.7759 17.8049 79.5947 16.5643 78.6423 15.8317C77.6439 15.059 76.1417 15.2961 74.9897 15.5362C74.6579 15.607 74.2893 15.607 73.9728 15.7455C73.6871 15.8686 73.4168 16.0133 73.1219 16.1241C72.4829 16.3735 71.9023 16.7305 71.3094 17.0661C70.7226 17.4016 70.1942 17.7649 69.6628 18.1804C69.3648 18.4113 68.8179 19.0731 68.5322 18.5129C68.3203 18.0912 68.0991 17.4262 68.4524 17.0384ZM67.8165 21.1202C67.8349 21.1017 67.8533 21.0833 67.8687 21.0648C67.8748 21.0586 67.881 21.0525 67.8871 21.0463C67.8902 21.0432 67.8933 21.0432 67.8933 21.0432C67.8933 21.0402 67.8963 21.0402 67.8963 21.0402C68.2988 20.6215 68.5169 20.8893 68.7381 21.3295C69.0207 21.8867 69.4016 22.3823 69.7672 22.8871C70.1451 23.4074 70.5659 23.8937 70.993 24.374C71.3616 24.7895 71.8654 25.1712 72.1634 25.6422C72.4276 26.0609 71.7395 26.5657 71.4722 26.8027C70.9807 27.2491 70.5967 27.7724 70.1789 28.2803C69.374 29.2654 68.6305 30.2966 68.0315 31.4202C65.9302 35.3758 64.557 39.7839 65.1806 44.2167C64.5509 44.2536 63.7614 44.2321 62.9196 44.192C62.1608 41.7232 61.9857 39.0574 62.1055 36.4932C62.1731 35.0834 62.3267 33.6335 62.6493 32.2575C62.9565 30.943 63.3405 29.6009 63.8474 28.3542C64.3942 27.0028 64.8427 25.6361 65.6015 24.377C66.2866 23.2473 66.9163 22.0899 67.8165 21.1202ZM65.9824 47.8491C65.8135 48.1754 65.2851 48.4924 64.9717 48.1846C64.5263 47.7475 64.2037 47.0672 63.9119 46.5254C63.8197 46.3561 63.7276 46.1868 63.6477 46.0144C64.3604 45.9744 65.0178 45.8543 65.4387 45.5834C65.4418 45.5988 65.4448 45.6142 65.4479 45.6296C65.4878 45.7928 65.5278 45.9528 65.5708 46.116C65.666 46.4546 65.749 46.7994 65.878 47.1287C65.964 47.3381 66.0992 47.6305 65.9824 47.8491ZM61.2853 34.9387C61.2853 34.9479 61.2822 34.9571 61.2822 34.9664C61.2822 34.9756 61.2791 34.9848 61.2791 34.9972C61.2791 35.0002 61.2791 35.0002 61.2791 35.0002C61.2791 35.0064 61.2791 35.0156 61.2761 35.0218V35.0341C61.2761 35.0372 61.2761 35.0433 61.273 35.0464C61.2761 35.0495 61.273 35.0526 61.273 35.0556V35.0649C61.273 35.068 61.273 35.0741 61.2699 35.0772V35.0834C61.2453 35.4743 61.2177 35.8776 61.058 36.2377C60.8091 35.8929 60.8982 35.2527 60.889 34.8525C60.8736 34.3107 60.7938 33.7935 60.8091 33.2425C60.8398 32.1805 61.0119 31.1462 61.1378 30.0904C61.4665 27.3968 62.6032 24.7803 63.9242 22.4439C64.6246 21.2095 65.4602 20.0397 66.4002 18.9746C66.5569 18.7992 67.1621 17.8541 67.4109 18.322C67.5093 18.5129 67.5308 18.7345 67.6014 18.9346C67.6874 19.1778 67.8257 19.4333 67.7059 19.6919C67.5584 20.0151 67.2512 20.2983 67.0362 20.5784C66.8242 20.8524 66.6184 21.1294 66.4125 21.4096C66.0101 21.9544 65.6138 22.4962 65.2636 23.078C64.5324 24.3001 63.9457 25.5745 63.3681 26.8705C62.8029 28.1356 62.4004 29.4624 62.0932 30.8107C61.7952 32.1713 61.3928 33.5473 61.2853 34.9387ZM60.9197 51.7246C61.5741 49.8376 61.6724 47.5566 60.4528 45.8728C60.8337 45.9005 61.6079 45.9898 62.4588 46.0205C62.7752 46.6793 63.107 47.3288 63.4787 47.963C63.7368 48.4001 64.3235 48.9942 63.875 49.4806C63.4511 49.9423 62.9933 50.3486 62.6093 50.8504C61.8505 51.8416 61.1317 52.9806 61.018 54.2519C60.9781 54.7106 60.9812 55.1723 61.0487 55.6187C61.0917 55.9173 61.1624 56.2097 61.2669 56.4929C59.4451 55.1877 59.4666 55.905 60.9197 51.7246ZM74.7132 57.7519C74.1879 58.0721 73.5827 58.2414 73.0082 58.4446C71.6565 58.9186 70.2096 59.0695 68.7872 59.1095C68.0438 59.131 67.1959 59.091 66.3542 58.9463C64.8181 58.6816 63.3005 58.0721 62.468 56.85C62.3728 56.7084 62.2868 56.5668 62.213 56.419C61.0917 54.1903 62.6892 51.5923 64.5201 50.2193C65.0762 49.8038 65.5462 50.678 65.8718 51.032C66.3234 51.5215 66.7996 51.9801 67.2973 52.4265C68.2711 53.3038 69.2419 54.2304 70.3263 54.9722L70.3509 54.9876C70.357 54.9907 70.357 54.9907 70.3601 54.9938C70.3632 54.9969 70.3663 54.9969 70.3693 54.9999C70.3847 55.0092 70.4338 55.043 70.4461 55.0523C70.4553 55.0584 70.4615 55.0646 70.4707 55.0707L70.4861 55.08C70.7595 55.277 71.0175 55.5294 71.377 55.5263C71.4261 55.1785 70.8793 54.8337 70.652 54.6613C70.314 54.4058 69.9607 54.1719 69.6443 53.8887C68.9101 53.2299 68.2496 52.5404 67.5983 51.7985C67.03 51.1521 66.3419 50.404 65.9671 49.6252C65.8166 49.3143 66.0316 49.0434 66.3296 48.9388C66.6122 48.8372 66.8057 49.1666 66.9194 49.3636C67.7888 50.8627 68.9285 52.2726 70.1297 53.5131C71.3862 54.8091 72.7563 55.9327 74.2985 56.8746C74.6395 57.0778 75.3061 57.3918 74.7132 57.7519ZM79.8742 54.4181C79.3458 54.3289 78.7714 53.9195 78.3167 53.6455C77.2538 53.0114 76.2707 52.2387 75.4351 51.3183C74.5811 50.3794 73.7885 49.382 73.0389 48.357C72.7194 47.9199 72.2863 47.4489 72.0712 46.9502C71.8838 46.5192 72.3999 46.4515 72.7071 46.3715L72.7133 46.3684C72.7164 46.3653 72.7164 46.3653 72.7164 46.3684L72.7194 46.3653L72.7379 46.3622C72.7471 46.3592 72.7563 46.3561 72.7686 46.353C72.7932 46.3438 72.8116 46.3407 72.8239 46.3376C72.827 46.3345 72.8331 46.3345 72.8392 46.3315C72.8423 46.3315 72.8454 46.3284 72.8485 46.3284C72.8546 46.3253 72.8577 46.3253 72.8577 46.3253C73.3154 46.1775 73.8868 45.9497 74.2831 46.3253C74.6733 46.6978 75.0327 47.0979 75.429 47.4643C76.3383 48.3077 77.2876 49.0958 78.3044 49.8069C79.3274 50.5179 80.3996 51.1582 81.5055 51.7246C81.7728 51.8601 82.5653 52.1248 82.3165 52.5435C82.0769 52.9529 81.6007 53.3315 81.2567 53.6486C80.9095 53.9718 80.4057 54.5074 79.8742 54.4181ZM93.21 56.1851C92.4973 56.9701 91.0841 56.8346 90.1349 56.8131C88.8108 56.7823 87.4714 56.7207 86.1658 56.4898C84.8817 56.259 83.5883 55.9019 82.3564 55.4617C82.2151 55.4124 81.828 55.317 81.8096 55.1231C81.7943 54.9076 82.1875 54.689 82.3257 54.5782C82.7712 54.2057 83.2166 53.8363 83.6559 53.4516C83.6559 53.4516 83.659 53.4516 83.659 53.4485L83.6805 53.43C83.6928 53.4208 83.702 53.4115 83.7143 53.3992C83.7419 53.3746 83.7573 53.3623 83.7634 53.3561C84.2488 52.9406 84.5622 52.8667 85.2165 52.999C85.8494 53.1222 86.5006 53.1622 87.1427 53.1961C88.3715 53.2607 89.6126 53.2607 90.8322 53.0575C90.9643 53.0329 91.9627 52.7128 91.7508 53.1345C91.548 53.5377 91.2132 54.5136 91.8276 54.1996C92.5802 53.821 94.1807 55.1231 93.21 56.1851ZM98.5154 53.0545C98.1283 53.1961 97.6583 53.233 97.2497 53.233C96.1837 53.233 95.1699 52.6912 94.1193 52.5096C94.1101 52.5065 94.1039 52.5065 94.0947 52.5065C94.0855 52.5034 94.0763 52.5034 94.0671 52.5034C94.0548 52.5004 94.0425 52.5004 94.0364 52.5004C94.0333 52.4973 94.0333 52.4973 94.0302 52.4973H94.0271C94.0271 52.4973 94.0271 52.4973 94.0241 52.4973C94.0179 52.4942 94.0148 52.4942 94.0087 52.4942C94.0056 52.4911 94.0026 52.4911 94.0026 52.4911C93.7967 52.4634 93.5725 52.448 93.4004 52.3187C93.5448 52.0417 93.849 51.9155 94.1039 51.7616C94.3804 51.5953 94.6538 51.4168 94.918 51.229C95.3358 50.9304 95.6768 50.5272 96.0916 50.2378C96.5186 49.9423 96.9364 50.5179 97.2036 50.7888C97.6276 51.2229 98.0147 51.6938 98.4386 52.1248C98.7274 52.4172 99.0622 52.8513 98.5154 53.0545Z" fill="white"/>
</svg>
